<svg width="69" height="26" viewBox="0 0 69 26" fill="none" xmlns="http://www.w3.org/2000/svg">
<path d="M2.9502 0C4.56849 0.000161681 5.87793 1.30937 5.87793 2.92676V11.0215C5.87793 11.1378 5.86963 11.2524 5.85645 11.3652V23.0215C5.85641 24.6388 4.54698 25.9481 2.92871 25.9482C1.3103 25.9482 3.15546e-05 24.6389 0 23.0215V7.92676C0 7.8104 0.00829525 7.69581 0.0214844 7.58301V2.92676C0.0214844 1.30927 1.33177 0 2.9502 0ZM11.9697 0C13.588 0.000161681 14.8975 1.30937 14.8975 2.92676V11.0215C14.8975 11.1378 14.8892 11.2524 14.876 11.3652V23.0215C14.8759 24.6388 13.5665 25.9481 11.9482 25.9482C10.3298 25.9482 9.01956 24.6389 9.01953 23.0215V7.92676C9.01953 7.8104 9.02783 7.69581 9.04102 7.58301V2.92676C9.04102 1.30927 10.3513 0 11.9697 0ZM20.9697 0C22.588 0.000161681 23.8975 1.30937 23.8975 2.92676V11.0215C23.8975 11.1378 23.8892 11.2524 23.876 11.3652V23.0215C23.8759 24.6388 22.5665 25.9481 20.9482 25.9482C19.3298 25.9482 18.0196 24.6389 18.0195 23.0215V7.92676C18.0195 7.8104 18.0278 7.69581 18.041 7.58301V2.92676C18.041 1.30927 19.3513 0 20.9697 0ZM29.9697 0C31.588 0.000161681 32.8975 1.30937 32.8975 2.92676V11.0215C32.8975 11.1378 32.8892 11.2524 32.876 11.3652V23.0215C32.8759 24.6388 31.5665 25.9481 29.9482 25.9482C28.3298 25.9482 27.0196 24.6389 27.0195 23.0215V7.92676C27.0195 7.8104 27.0278 7.69581 27.041 7.58301V2.92676C27.041 1.30927 28.3513 0 29.9697 0ZM38.9697 0C40.588 0.000161681 41.8975 1.30937 41.8975 2.92676V11.0215C41.8975 11.1378 41.8892 11.2524 41.876 11.3652V23.0215C41.8759 24.6388 40.5665 25.9481 38.9482 25.9482C37.3298 25.9482 36.0196 24.6389 36.0195 23.0215V7.92676C36.0195 7.8104 36.0278 7.69581 36.041 7.58301V2.92676C36.041 1.30927 37.3513 0 38.9697 0ZM47.9697 0C49.588 0.000161681 50.8975 1.30937 50.8975 2.92676V11.0215C50.8975 11.1378 50.8892 11.2524 50.876 11.3652V23.0215C50.8759 24.6388 49.5665 25.9481 47.9482 25.9482C46.3298 25.9482 45.0196 24.6389 45.0195 23.0215V7.92676C45.0195 7.8104 45.0278 7.69581 45.041 7.58301V2.92676C45.041 1.30927 46.3513 0 47.9697 0ZM56.9697 0C58.588 0.000161681 59.8975 1.30937 59.8975 2.92676V11.0215C59.8975 11.1378 59.8892 11.2524 59.876 11.3652V23.0215C59.8759 24.6388 58.5665 25.9481 56.9482 25.9482C55.3298 25.9482 54.0196 24.6389 54.0195 23.0215V7.92676C54.0195 7.8104 54.0278 7.69581 54.041 7.58301V2.92676C54.041 1.30927 55.3513 0 56.9697 0ZM65.9697 0C67.588 0.000161681 68.8975 1.30937 68.8975 2.92676V11.0215C68.8975 11.1378 68.8892 11.2524 68.876 11.3652V23.0215C68.8759 24.6388 67.5665 25.9481 65.9482 25.9482C64.3298 25.9482 63.0196 24.6389 63.0195 23.0215V7.92676C63.0195 7.8104 63.0278 7.69581 63.041 7.58301V2.92676C63.041 1.30927 64.3513 0 65.9697 0Z" fill="white"/>
</svg>
