<svg width="205" height="205" viewBox="0 0 205 205" fill="none" xmlns="http://www.w3.org/2000/svg">
<path d="M102.5 0L82 41H123L102.5 0Z" fill="white"/>
<path d="M164 123L205 102.5L164 82V123Z" fill="white"/>
<path d="M192.5 12.5L149 27L140.2 53.3L131.5 44.5L117 88L160.5 73.5L151.7 64.7L178 56L192.5 12.5Z" fill="white"/>
<path d="M178 149L151.7 140.2L160.5 131.5L117 117L131.5 160.5L140.2 151.7L149 178L192.5 192.5L178 149Z" fill="white"/>
<path d="M88 88L73.5 44.5L64.7 53.3L56 27L12.5 12.5L27 56L53.3 64.8L44.5 73.5L88 88Z" fill="white"/>
<path d="M102.5 205L123 164H82L102.5 205Z" fill="white"/>
<path d="M41 82L0 102.5L41 123V82Z" fill="white"/>
<path d="M44.5 131.5L53.3 140.2L27 149L12.5 192.5L56 178L64.7 151.7L73.5 160.5L88 117L44.5 131.5Z" fill="white"/>
<path d="M102.5 123C113.822 123 123 113.822 123 102.5C123 91.1782 113.822 82 102.5 82C91.1782 82 82 91.1782 82 102.5C82 113.822 91.1782 123 102.5 123Z" fill="white"/>
</svg>
