<svg width="209" height="209" viewBox="0 0 209 209" fill="none" xmlns="http://www.w3.org/2000/svg">
<path d="M84 43L104.5 2L125 43H84Z" fill="white"/>
<path d="M75.5086 46.5172L90.0043 90.0043L46.5173 75.5086L75.5086 46.5172Z" fill="white"/>
<path d="M166 84L207 104.5L166 125L166 84Z" fill="white"/>
<path d="M162.484 75.5086L118.997 90.0043L133.492 46.5173L162.484 75.5086Z" fill="white"/>
<path d="M179.991 151L194.487 194.487L151 179.991L179.991 151Z" fill="white"/>
<path d="M179.984 57.9913L136.497 72.487L150.992 28.9999L179.984 57.9913Z" fill="white"/>
<path d="M57.9836 179.991L14.4965 194.487L28.9922 151L57.9836 179.991Z" fill="white"/>
<path d="M29.0008 150.991L72.4879 136.496L57.9922 179.983L29.0008 150.991Z" fill="white"/>
<path d="M151.001 28.9914L194.488 14.4957L179.992 57.9827L151.001 28.9914Z" fill="white"/>
<path d="M150.991 179.983L136.496 136.496L179.983 150.991L150.991 179.983Z" fill="white"/>
<path d="M28.9914 57.9828L14.4957 14.4957L57.9827 28.9914L28.9914 57.9828Z" fill="white"/>
<path d="M57.991 29.0001L72.4867 72.4871L28.9997 57.9914L57.991 29.0001Z" fill="white"/>
<path d="M125 166L104.5 207L84 166L125 166Z" fill="white"/>
<path d="M133.491 162.483L118.996 118.996L162.483 133.491L133.491 162.483Z" fill="white"/>
<path d="M43 125L2 104.5L43 84L43 125Z" fill="white"/>
<path d="M46.5164 133.491L90.0035 118.996L75.5078 162.483L46.5164 133.491Z" fill="white"/>
<path d="M84 104.5C84 93.18 93.18 84 104.5 84C115.82 84 125 93.18 125 104.5C125 115.82 115.82 125 104.5 125C93.18 125 84 115.82 84 104.5Z" fill="white"/>
</svg>
