<svg width="38995" height="13808" viewBox="0 0 38995 13808" fill="none" xmlns="http://www.w3.org/2000/svg">
<path d="M9244.71 0C8275.34 0 7384.98 338.988 6681.55 899.475C5978.13 338.988 5087.77 0 4118.4 0C1848.17 0 0 1847.1 0 4116.01C0 4975.04 695.714 5670.35 1555.24 5670.35C2414.76 5670.35 3110.48 4975.04 3110.48 4116.01C3110.48 3561.3 3563.37 3108.68 4118.4 3108.68C4673.43 3108.68 5126.31 3561.3 5126.31 4116.01V12253.7C5126.31 13112.7 5822.03 13808 6681.55 13808C7541.08 13808 8236.79 13112.7 8236.79 12253.7V4116.01C8236.79 3561.3 8689.68 3108.68 9244.71 3108.68C9799.74 3108.68 10252.6 3561.3 10252.6 4116.01C10252.6 4975.04 10948.3 5670.35 11807.9 5670.35C12667.4 5670.35 13363.1 4975.04 13363.1 4116.01C13363.1 1847.1 11514.9 0 9244.71 0Z" fill="white"/>
<path d="M11807.9 6400.33C10948.3 6400.33 10252.6 7095.64 10252.6 7954.67V12253.7C10252.6 13112.7 10948.3 13808 11807.9 13808C12667.4 13808 13363.1 13112.7 13363.1 12253.7V7954.67C13363.1 7095.64 12667.4 6400.33 11807.9 6400.33Z" fill="white"/>
<path d="M27186.8 6400.33C26327.3 6400.33 25631.6 7095.64 25631.6 7954.67V9691.99C25631.6 10246.7 25178.7 10699.3 24623.7 10699.3C24068.6 10699.3 23615.7 10246.7 23615.7 9691.99V4116.01C23615.7 1847.1 21767.6 0 19497.3 0C17227.1 0 15378.9 1847.1 15378.9 4116.01V12253.7C15378.9 13112.7 16074.7 13808 16934.2 13808C17793.7 13808 18489.4 13112.7 18489.4 12253.7V4116.01C18489.4 3561.3 18942.3 3108.68 19497.3 3108.68C20052.4 3108.68 20505.3 3561.3 20505.3 4116.01V9691.99C20505.3 11960.9 22353.4 13808 24623.7 13808C26893.9 13808 28742 11960.9 28742 9691.99V7954.67C28742 7095.64 28044.4 6400.33 27186.8 6400.33Z" fill="white"/>
<path d="M34874.4 0C33905 0 33014.6 338.988 32311.2 899.475C31607.8 338.988 30717.4 0 29750 0C27477.8 0 25631.6 1847.1 25631.6 4116.01C25631.6 4975.04 26327.3 5670.35 27186.8 5670.35C28046.3 5670.35 28742.1 4975.04 28742.1 4116.01C28742.1 3561.3 29194.9 3108.68 29750 3108.68C30305 3108.68 30757.9 3561.3 30757.9 4116.01V12253.7C30757.9 13112.7 31453.6 13808 32313.1 13808C33172.7 13808 33868.4 13112.7 33868.4 12253.7V4116.01C33868.4 3561.3 34321.3 3108.68 34876.3 3108.68C35431.3 3108.68 35884.2 3561.3 35884.2 4116.01C35884.2 4975.04 36579.9 5670.35 37439.4 5670.35C38299 5670.35 38994.7 4975.04 38994.7 4116.01C38992.8 1847.1 37146.5 0 34874.4 0Z" fill="white"/>
</svg>
